<mxfile host="app.diagrams.net" modified="2021-02-11T13:01:57.616Z" agent="5.0 (Windows NT 10.0; Win64; x64) AppleWebKit/537.36 (KHTML, like Gecko) Chrome/88.0.4324.150 Safari/537.36 Edg/88.0.705.63" etag="je_HrlI3Zs_PzTIGzBP8" version="14.3.0" type="github">
  <diagram id="UIl6maEpT-ETIeLg9DOF" name="Page-1">
    <mxGraphModel dx="1776" dy="922" grid="1" gridSize="10" guides="1" tooltips="1" connect="1" arrows="1" fold="1" page="1" pageScale="1" pageWidth="827" pageHeight="1169" math="0" shadow="0">
      <root>
        <mxCell id="0" />
        <mxCell id="1" parent="0" />
        <mxCell id="njHftQt_05gtDWMgDomF-2" style="edgeStyle=orthogonalEdgeStyle;rounded=0;orthogonalLoop=1;jettySize=auto;html=1;endArrow=none;endFill=0;dashed=1;" edge="1" parent="1" source="njHftQt_05gtDWMgDomF-1">
          <mxGeometry relative="1" as="geometry">
            <mxPoint x="100" y="1150" as="targetPoint" />
            <Array as="points">
              <mxPoint x="95" y="1150" />
            </Array>
          </mxGeometry>
        </mxCell>
        <mxCell id="njHftQt_05gtDWMgDomF-1" value="Actor" style="rounded=0;whiteSpace=wrap;html=1;" vertex="1" parent="1">
          <mxGeometry x="40" y="40" width="110" height="30" as="geometry" />
        </mxCell>
        <mxCell id="njHftQt_05gtDWMgDomF-16" style="edgeStyle=orthogonalEdgeStyle;rounded=0;orthogonalLoop=1;jettySize=auto;html=1;dashed=1;endArrow=none;endFill=0;" edge="1" parent="1" source="njHftQt_05gtDWMgDomF-3">
          <mxGeometry relative="1" as="geometry">
            <mxPoint x="270" y="1140" as="targetPoint" />
            <Array as="points">
              <mxPoint x="270" y="1140" />
            </Array>
          </mxGeometry>
        </mxCell>
        <mxCell id="njHftQt_05gtDWMgDomF-3" value="view: MyReservations" style="rounded=0;whiteSpace=wrap;html=1;" vertex="1" parent="1">
          <mxGeometry x="210" y="40" width="120" height="30" as="geometry" />
        </mxCell>
        <mxCell id="njHftQt_05gtDWMgDomF-17" style="edgeStyle=orthogonalEdgeStyle;rounded=0;orthogonalLoop=1;jettySize=auto;html=1;dashed=1;endArrow=none;endFill=0;" edge="1" parent="1" source="njHftQt_05gtDWMgDomF-4">
          <mxGeometry relative="1" as="geometry">
            <mxPoint x="449.9999999999998" y="1140" as="targetPoint" />
          </mxGeometry>
        </mxCell>
        <mxCell id="njHftQt_05gtDWMgDomF-4" value="Gcontroller: MyReservationGC&amp;nbsp;" style="rounded=0;whiteSpace=wrap;html=1;" vertex="1" parent="1">
          <mxGeometry x="390" y="40" width="120" height="30" as="geometry" />
        </mxCell>
        <mxCell id="njHftQt_05gtDWMgDomF-18" style="edgeStyle=orthogonalEdgeStyle;rounded=0;orthogonalLoop=1;jettySize=auto;html=1;dashed=1;endArrow=none;endFill=0;" edge="1" parent="1" source="njHftQt_05gtDWMgDomF-35">
          <mxGeometry relative="1" as="geometry">
            <mxPoint x="629.9999999999998" y="1130" as="targetPoint" />
          </mxGeometry>
        </mxCell>
        <mxCell id="njHftQt_05gtDWMgDomF-5" value="controller: ReservationController" style="rounded=0;whiteSpace=wrap;html=1;" vertex="1" parent="1">
          <mxGeometry x="570" y="40" width="120" height="30" as="geometry" />
        </mxCell>
        <mxCell id="njHftQt_05gtDWMgDomF-19" style="edgeStyle=orthogonalEdgeStyle;rounded=0;orthogonalLoop=1;jettySize=auto;html=1;dashed=1;endArrow=none;endFill=0;" edge="1" parent="1" source="njHftQt_05gtDWMgDomF-39">
          <mxGeometry relative="1" as="geometry">
            <mxPoint x="810" y="1130" as="targetPoint" />
          </mxGeometry>
        </mxCell>
        <mxCell id="njHftQt_05gtDWMgDomF-52" value="5: &amp;lt;&amp;lt;create&amp;gt;&amp;gt;" style="edgeLabel;html=1;align=center;verticalAlign=middle;resizable=0;points=[];" vertex="1" connectable="0" parent="njHftQt_05gtDWMgDomF-19">
          <mxGeometry x="-0.9692" y="1" relative="1" as="geometry">
            <mxPoint x="69" y="-4.76" as="offset" />
          </mxGeometry>
        </mxCell>
        <mxCell id="njHftQt_05gtDWMgDomF-6" value="dao: ReservationDAOImpl" style="rounded=0;whiteSpace=wrap;html=1;" vertex="1" parent="1">
          <mxGeometry x="750" y="40" width="120" height="30" as="geometry" />
        </mxCell>
        <mxCell id="njHftQt_05gtDWMgDomF-21" style="edgeStyle=orthogonalEdgeStyle;rounded=0;orthogonalLoop=1;jettySize=auto;html=1;dashed=1;endArrow=none;endFill=0;" edge="1" parent="1" source="njHftQt_05gtDWMgDomF-94">
          <mxGeometry relative="1" as="geometry">
            <mxPoint x="1170" y="1120" as="targetPoint" />
          </mxGeometry>
        </mxCell>
        <mxCell id="njHftQt_05gtDWMgDomF-7" value="dao: AccountDAOImpl" style="rounded=0;whiteSpace=wrap;html=1;" vertex="1" parent="1">
          <mxGeometry x="1110" y="40" width="120" height="30" as="geometry" />
        </mxCell>
        <mxCell id="njHftQt_05gtDWMgDomF-25" style="edgeStyle=orthogonalEdgeStyle;rounded=0;orthogonalLoop=1;jettySize=auto;html=1;dashed=1;endArrow=none;endFill=0;" edge="1" parent="1" source="njHftQt_05gtDWMgDomF-68">
          <mxGeometry relative="1" as="geometry">
            <mxPoint x="1530" y="1120" as="targetPoint" />
          </mxGeometry>
        </mxCell>
        <mxCell id="njHftQt_05gtDWMgDomF-8" value="dao: RoomDAOImpl" style="rounded=0;whiteSpace=wrap;html=1;" vertex="1" parent="1">
          <mxGeometry x="1470" y="40" width="120" height="30" as="geometry" />
        </mxCell>
        <mxCell id="njHftQt_05gtDWMgDomF-27" style="edgeStyle=orthogonalEdgeStyle;rounded=0;orthogonalLoop=1;jettySize=auto;html=1;dashed=1;endArrow=none;endFill=0;" edge="1" parent="1" source="njHftQt_05gtDWMgDomF-80">
          <mxGeometry relative="1" as="geometry">
            <mxPoint x="1890" y="1120" as="targetPoint" />
          </mxGeometry>
        </mxCell>
        <mxCell id="njHftQt_05gtDWMgDomF-9" value="dao: RoomSpecDAOImpl" style="rounded=0;whiteSpace=wrap;html=1;" vertex="1" parent="1">
          <mxGeometry x="1830" y="40" width="120" height="30" as="geometry" />
        </mxCell>
        <mxCell id="njHftQt_05gtDWMgDomF-23" style="edgeStyle=orthogonalEdgeStyle;rounded=0;orthogonalLoop=1;jettySize=auto;html=1;dashed=1;endArrow=none;endFill=0;" edge="1" parent="1" source="njHftQt_05gtDWMgDomF-10">
          <mxGeometry relative="1" as="geometry">
            <mxPoint x="2230" y="1120" as="targetPoint" />
          </mxGeometry>
        </mxCell>
        <mxCell id="njHftQt_05gtDWMgDomF-10" value="dao: PersonDAOImpl" style="rounded=0;whiteSpace=wrap;html=1;" vertex="1" parent="1">
          <mxGeometry x="2170" y="40" width="120" height="30" as="geometry" />
        </mxCell>
        <mxCell id="njHftQt_05gtDWMgDomF-22" style="edgeStyle=orthogonalEdgeStyle;rounded=0;orthogonalLoop=1;jettySize=auto;html=1;dashed=1;endArrow=none;endFill=0;" edge="1" parent="1" source="njHftQt_05gtDWMgDomF-101">
          <mxGeometry relative="1" as="geometry">
            <mxPoint x="1350" y="1120" as="targetPoint" />
          </mxGeometry>
        </mxCell>
        <mxCell id="njHftQt_05gtDWMgDomF-11" value="account: Account" style="rounded=0;whiteSpace=wrap;html=1;" vertex="1" parent="1">
          <mxGeometry x="1290" y="40" width="120" height="30" as="geometry" />
        </mxCell>
        <mxCell id="njHftQt_05gtDWMgDomF-24" style="edgeStyle=orthogonalEdgeStyle;rounded=0;orthogonalLoop=1;jettySize=auto;html=1;dashed=1;endArrow=none;endFill=0;" edge="1" parent="1" source="njHftQt_05gtDWMgDomF-12">
          <mxGeometry relative="1" as="geometry">
            <mxPoint x="2410" y="1120" as="targetPoint" />
          </mxGeometry>
        </mxCell>
        <mxCell id="njHftQt_05gtDWMgDomF-12" value="person: Person" style="rounded=0;whiteSpace=wrap;html=1;" vertex="1" parent="1">
          <mxGeometry x="2350" y="40" width="120" height="30" as="geometry" />
        </mxCell>
        <mxCell id="njHftQt_05gtDWMgDomF-26" style="edgeStyle=orthogonalEdgeStyle;rounded=0;orthogonalLoop=1;jettySize=auto;html=1;dashed=1;endArrow=none;endFill=0;" edge="1" parent="1" source="njHftQt_05gtDWMgDomF-72">
          <mxGeometry relative="1" as="geometry">
            <mxPoint x="1708" y="1120" as="targetPoint" />
          </mxGeometry>
        </mxCell>
        <mxCell id="njHftQt_05gtDWMgDomF-13" value="room: Room" style="rounded=0;whiteSpace=wrap;html=1;" vertex="1" parent="1">
          <mxGeometry x="1648" y="40" width="120" height="30" as="geometry" />
        </mxCell>
        <mxCell id="njHftQt_05gtDWMgDomF-28" style="edgeStyle=orthogonalEdgeStyle;rounded=0;orthogonalLoop=1;jettySize=auto;html=1;dashed=1;endArrow=none;endFill=0;" edge="1" parent="1" source="njHftQt_05gtDWMgDomF-84">
          <mxGeometry relative="1" as="geometry">
            <mxPoint x="2060.9999999999995" y="1120" as="targetPoint" />
          </mxGeometry>
        </mxCell>
        <mxCell id="njHftQt_05gtDWMgDomF-14" value="roomSpec: RoomSpec" style="rounded=0;whiteSpace=wrap;html=1;" vertex="1" parent="1">
          <mxGeometry x="2001" y="40" width="120" height="30" as="geometry" />
        </mxCell>
        <mxCell id="njHftQt_05gtDWMgDomF-20" style="edgeStyle=orthogonalEdgeStyle;rounded=0;orthogonalLoop=1;jettySize=auto;html=1;dashed=1;endArrow=none;endFill=0;" edge="1" parent="1" source="njHftQt_05gtDWMgDomF-45">
          <mxGeometry relative="1" as="geometry">
            <mxPoint x="990" y="1121.6326904296875" as="targetPoint" />
          </mxGeometry>
        </mxCell>
        <mxCell id="njHftQt_05gtDWMgDomF-15" value="reservation: Reservation" style="rounded=0;whiteSpace=wrap;html=1;" vertex="1" parent="1">
          <mxGeometry x="930" y="40" width="120" height="30" as="geometry" />
        </mxCell>
        <mxCell id="njHftQt_05gtDWMgDomF-30" style="edgeStyle=orthogonalEdgeStyle;rounded=0;orthogonalLoop=1;jettySize=auto;html=1;exitX=0;exitY=1;exitDx=0;exitDy=0;endArrow=classic;endFill=1;entryX=0;entryY=1;entryDx=0;entryDy=0;" edge="1" parent="1" target="njHftQt_05gtDWMgDomF-29">
          <mxGeometry relative="1" as="geometry">
            <mxPoint x="100" y="100" as="sourcePoint" />
            <Array as="points">
              <mxPoint x="220" y="100" />
              <mxPoint x="220" y="100" />
            </Array>
          </mxGeometry>
        </mxCell>
        <mxCell id="njHftQt_05gtDWMgDomF-29" value="" style="rounded=0;whiteSpace=wrap;html=1;direction=south;" vertex="1" parent="1">
          <mxGeometry x="265" y="100" width="10" height="240" as="geometry" />
        </mxCell>
        <mxCell id="njHftQt_05gtDWMgDomF-31" value="1: My" style="text;html=1;align=center;verticalAlign=middle;resizable=0;points=[];autosize=1;" vertex="1" parent="1">
          <mxGeometry x="155" y="80" width="40" height="20" as="geometry" />
        </mxCell>
        <mxCell id="njHftQt_05gtDWMgDomF-32" value="" style="rounded=0;whiteSpace=wrap;html=1;direction=south;" vertex="1" parent="1">
          <mxGeometry x="445" y="120" width="10" height="240" as="geometry" />
        </mxCell>
        <mxCell id="njHftQt_05gtDWMgDomF-33" style="edgeStyle=orthogonalEdgeStyle;rounded=0;orthogonalLoop=1;jettySize=auto;html=1;endArrow=classic;endFill=1;entryX=0;entryY=1;entryDx=0;entryDy=0;exitX=0.079;exitY=-0.005;exitDx=0;exitDy=0;exitPerimeter=0;" edge="1" parent="1" source="njHftQt_05gtDWMgDomF-29" target="njHftQt_05gtDWMgDomF-32">
          <mxGeometry relative="1" as="geometry">
            <mxPoint x="440" y="120.00000000000034" as="targetPoint" />
            <mxPoint x="280" y="120" as="sourcePoint" />
            <Array as="points">
              <mxPoint x="275" y="120" />
            </Array>
          </mxGeometry>
        </mxCell>
        <mxCell id="njHftQt_05gtDWMgDomF-34" value="2:GController: setAllPast&amp;nbsp;" style="text;html=1;align=center;verticalAlign=middle;resizable=0;points=[];autosize=1;" vertex="1" parent="1">
          <mxGeometry x="290" y="100" width="150" height="20" as="geometry" />
        </mxCell>
        <mxCell id="njHftQt_05gtDWMgDomF-44" style="edgeStyle=orthogonalEdgeStyle;rounded=0;orthogonalLoop=1;jettySize=auto;html=1;exitX=0.292;exitY=0.008;exitDx=0;exitDy=0;endArrow=classic;endFill=1;entryX=0;entryY=1;entryDx=0;entryDy=0;exitPerimeter=0;" edge="1" parent="1" source="njHftQt_05gtDWMgDomF-35" target="njHftQt_05gtDWMgDomF-45">
          <mxGeometry relative="1" as="geometry">
            <mxPoint x="980" y="200" as="targetPoint" />
            <Array as="points">
              <mxPoint x="910" y="210" />
              <mxPoint x="910" y="210" />
            </Array>
          </mxGeometry>
        </mxCell>
        <mxCell id="njHftQt_05gtDWMgDomF-56" style="edgeStyle=orthogonalEdgeStyle;rounded=0;orthogonalLoop=1;jettySize=auto;html=1;endArrow=classic;endFill=1;entryX=0;entryY=1;entryDx=0;entryDy=0;" edge="1" parent="1" source="njHftQt_05gtDWMgDomF-35" target="njHftQt_05gtDWMgDomF-57">
          <mxGeometry relative="1" as="geometry">
            <mxPoint x="1150" y="260" as="targetPoint" />
            <Array as="points">
              <mxPoint x="1040" y="260" />
              <mxPoint x="1040" y="260" />
            </Array>
          </mxGeometry>
        </mxCell>
        <mxCell id="njHftQt_05gtDWMgDomF-35" value="" style="rounded=0;whiteSpace=wrap;html=1;direction=south;" vertex="1" parent="1">
          <mxGeometry x="625" y="140" width="10" height="620" as="geometry" />
        </mxCell>
        <mxCell id="njHftQt_05gtDWMgDomF-36" style="edgeStyle=orthogonalEdgeStyle;rounded=0;orthogonalLoop=1;jettySize=auto;html=1;dashed=1;endArrow=none;endFill=0;" edge="1" parent="1" source="njHftQt_05gtDWMgDomF-5" target="njHftQt_05gtDWMgDomF-35">
          <mxGeometry relative="1" as="geometry">
            <mxPoint x="629.9999999999998" y="1130" as="targetPoint" />
            <mxPoint x="629.9999999999998" y="70" as="sourcePoint" />
          </mxGeometry>
        </mxCell>
        <mxCell id="njHftQt_05gtDWMgDomF-37" style="edgeStyle=orthogonalEdgeStyle;rounded=0;orthogonalLoop=1;jettySize=auto;html=1;endArrow=classic;endFill=1;entryX=0;entryY=1;entryDx=0;entryDy=0;exitX=0.079;exitY=-0.005;exitDx=0;exitDy=0;exitPerimeter=0;" edge="1" parent="1" target="njHftQt_05gtDWMgDomF-35">
          <mxGeometry relative="1" as="geometry">
            <mxPoint x="624.95" y="141.04000000000033" as="targetPoint" />
            <mxPoint x="454.99999999999994" y="139.99999999999997" as="sourcePoint" />
            <Array as="points">
              <mxPoint x="530" y="140" />
              <mxPoint x="530" y="140" />
            </Array>
          </mxGeometry>
        </mxCell>
        <mxCell id="njHftQt_05gtDWMgDomF-38" value="3: getMyPastReservation" style="text;html=1;align=center;verticalAlign=middle;resizable=0;points=[];autosize=1;" vertex="1" parent="1">
          <mxGeometry x="455" y="120" width="150" height="20" as="geometry" />
        </mxCell>
        <mxCell id="njHftQt_05gtDWMgDomF-39" value="" style="rounded=0;whiteSpace=wrap;html=1;direction=south;" vertex="1" parent="1">
          <mxGeometry x="805" y="160" width="10" height="30" as="geometry" />
        </mxCell>
        <mxCell id="njHftQt_05gtDWMgDomF-40" style="edgeStyle=orthogonalEdgeStyle;rounded=0;orthogonalLoop=1;jettySize=auto;html=1;dashed=1;endArrow=none;endFill=0;" edge="1" parent="1" source="njHftQt_05gtDWMgDomF-6" target="njHftQt_05gtDWMgDomF-39">
          <mxGeometry relative="1" as="geometry">
            <mxPoint x="810" y="1130" as="targetPoint" />
            <mxPoint x="810" y="70" as="sourcePoint" />
          </mxGeometry>
        </mxCell>
        <mxCell id="njHftQt_05gtDWMgDomF-41" style="edgeStyle=orthogonalEdgeStyle;rounded=0;orthogonalLoop=1;jettySize=auto;html=1;endArrow=classic;endFill=1;entryX=0;entryY=1;entryDx=0;entryDy=0;exitX=0.079;exitY=-0.005;exitDx=0;exitDy=0;exitPerimeter=0;" edge="1" parent="1">
          <mxGeometry relative="1" as="geometry">
            <mxPoint x="805" y="160.00000000000034" as="targetPoint" />
            <mxPoint x="635" y="160" as="sourcePoint" />
            <Array as="points">
              <mxPoint x="710" y="160" />
              <mxPoint x="710" y="160" />
            </Array>
          </mxGeometry>
        </mxCell>
        <mxCell id="njHftQt_05gtDWMgDomF-42" value="4: getAllAccountReservations" style="text;html=1;align=center;verticalAlign=middle;resizable=0;points=[];autosize=1;" vertex="1" parent="1">
          <mxGeometry x="635" y="140" width="170" height="20" as="geometry" />
        </mxCell>
        <mxCell id="njHftQt_05gtDWMgDomF-43" style="edgeStyle=orthogonalEdgeStyle;rounded=0;orthogonalLoop=1;jettySize=auto;html=1;endArrow=classic;endFill=1;entryX=0;entryY=1;entryDx=0;entryDy=0;exitX=0.079;exitY=-0.005;exitDx=0;exitDy=0;exitPerimeter=0;dashed=1;" edge="1" parent="1">
          <mxGeometry relative="1" as="geometry">
            <mxPoint x="635" y="189.52" as="targetPoint" />
            <mxPoint x="805" y="189.52000000000035" as="sourcePoint" />
            <Array as="points">
              <mxPoint x="710" y="189.52" />
              <mxPoint x="710" y="189.52" />
            </Array>
          </mxGeometry>
        </mxCell>
        <mxCell id="njHftQt_05gtDWMgDomF-53" style="edgeStyle=orthogonalEdgeStyle;rounded=0;orthogonalLoop=1;jettySize=auto;html=1;exitX=1;exitY=1;exitDx=0;exitDy=0;endArrow=classic;endFill=1;dashed=1;" edge="1" parent="1" source="njHftQt_05gtDWMgDomF-45">
          <mxGeometry relative="1" as="geometry">
            <mxPoint x="640" y="240" as="targetPoint" />
            <Array as="points">
              <mxPoint x="660" y="240" />
            </Array>
          </mxGeometry>
        </mxCell>
        <mxCell id="njHftQt_05gtDWMgDomF-45" value="" style="rounded=0;whiteSpace=wrap;html=1;direction=south;" vertex="1" parent="1">
          <mxGeometry x="985" y="210" width="10" height="30" as="geometry" />
        </mxCell>
        <mxCell id="njHftQt_05gtDWMgDomF-46" style="edgeStyle=orthogonalEdgeStyle;rounded=0;orthogonalLoop=1;jettySize=auto;html=1;dashed=1;endArrow=none;endFill=0;" edge="1" parent="1" source="njHftQt_05gtDWMgDomF-15" target="njHftQt_05gtDWMgDomF-45">
          <mxGeometry relative="1" as="geometry">
            <mxPoint x="990" y="1121.6326904296875" as="targetPoint" />
            <mxPoint x="990" y="70" as="sourcePoint" />
          </mxGeometry>
        </mxCell>
        <mxCell id="njHftQt_05gtDWMgDomF-47" value="5: list of past res beans" style="text;html=1;align=center;verticalAlign=middle;resizable=0;points=[];autosize=1;" vertex="1" parent="1">
          <mxGeometry x="650" y="170" width="140" height="20" as="geometry" />
        </mxCell>
        <mxCell id="njHftQt_05gtDWMgDomF-55" value="6: list of past res entities" style="text;html=1;align=center;verticalAlign=middle;resizable=0;points=[];autosize=1;" vertex="1" parent="1">
          <mxGeometry x="665" y="220" width="140" height="20" as="geometry" />
        </mxCell>
        <mxCell id="njHftQt_05gtDWMgDomF-60" style="edgeStyle=orthogonalEdgeStyle;rounded=0;orthogonalLoop=1;jettySize=auto;html=1;exitX=1;exitY=1;exitDx=0;exitDy=0;dashed=1;endArrow=classic;endFill=1;" edge="1" parent="1" source="njHftQt_05gtDWMgDomF-57">
          <mxGeometry relative="1" as="geometry">
            <mxPoint x="650" y="290" as="targetPoint" />
            <Array as="points">
              <mxPoint x="900" y="290" />
            </Array>
          </mxGeometry>
        </mxCell>
        <mxCell id="njHftQt_05gtDWMgDomF-57" value="" style="rounded=0;whiteSpace=wrap;html=1;direction=south;" vertex="1" parent="1">
          <mxGeometry x="1165" y="260" width="10" height="30" as="geometry" />
        </mxCell>
        <mxCell id="njHftQt_05gtDWMgDomF-58" style="edgeStyle=orthogonalEdgeStyle;rounded=0;orthogonalLoop=1;jettySize=auto;html=1;dashed=1;endArrow=none;endFill=0;" edge="1" parent="1" source="njHftQt_05gtDWMgDomF-7" target="njHftQt_05gtDWMgDomF-57">
          <mxGeometry relative="1" as="geometry">
            <mxPoint x="1170" y="1120" as="targetPoint" />
            <mxPoint x="1170" y="70" as="sourcePoint" />
          </mxGeometry>
        </mxCell>
        <mxCell id="njHftQt_05gtDWMgDomF-59" value="7: getAccount&amp;nbsp;" style="text;html=1;align=center;verticalAlign=middle;resizable=0;points=[];autosize=1;" vertex="1" parent="1">
          <mxGeometry x="895" y="240" width="90" height="20" as="geometry" />
        </mxCell>
        <mxCell id="njHftQt_05gtDWMgDomF-61" value="8: AccountBean : reservingUserBean" style="text;html=1;align=center;verticalAlign=middle;resizable=0;points=[];autosize=1;" vertex="1" parent="1">
          <mxGeometry x="785" y="270" width="210" height="20" as="geometry" />
        </mxCell>
        <mxCell id="njHftQt_05gtDWMgDomF-62" style="edgeStyle=orthogonalEdgeStyle;rounded=0;orthogonalLoop=1;jettySize=auto;html=1;endArrow=classic;endFill=1;entryX=0;entryY=1;entryDx=0;entryDy=0;" edge="1" parent="1" target="njHftQt_05gtDWMgDomF-63">
          <mxGeometry relative="1" as="geometry">
            <mxPoint x="1340" y="310" as="targetPoint" />
            <mxPoint x="635" y="310" as="sourcePoint" />
            <Array as="points">
              <mxPoint x="1170" y="310" />
              <mxPoint x="1170" y="310" />
            </Array>
          </mxGeometry>
        </mxCell>
        <mxCell id="njHftQt_05gtDWMgDomF-63" value="" style="rounded=0;whiteSpace=wrap;html=1;direction=south;" vertex="1" parent="1">
          <mxGeometry x="1345" y="310" width="10" height="30" as="geometry" />
        </mxCell>
        <mxCell id="njHftQt_05gtDWMgDomF-64" value="9: &amp;lt;&amp;lt;create&amp;gt;&amp;gt;" style="text;html=1;align=center;verticalAlign=middle;resizable=0;points=[];autosize=1;" vertex="1" parent="1">
          <mxGeometry x="1025" y="290" width="90" height="20" as="geometry" />
        </mxCell>
        <mxCell id="njHftQt_05gtDWMgDomF-65" style="edgeStyle=orthogonalEdgeStyle;rounded=0;orthogonalLoop=1;jettySize=auto;html=1;exitX=1;exitY=1;exitDx=0;exitDy=0;dashed=1;endArrow=classic;endFill=1;" edge="1" parent="1" source="njHftQt_05gtDWMgDomF-63">
          <mxGeometry relative="1" as="geometry">
            <mxPoint x="1194.7800000000002" y="330.24" as="sourcePoint" />
            <mxPoint x="660" y="340" as="targetPoint" />
            <Array as="points">
              <mxPoint x="990" y="340" />
            </Array>
          </mxGeometry>
        </mxCell>
        <mxCell id="njHftQt_05gtDWMgDomF-66" value="10: Account entity: reservingUser" style="text;html=1;align=center;verticalAlign=middle;resizable=0;points=[];autosize=1;" vertex="1" parent="1">
          <mxGeometry x="835" y="320" width="190" height="20" as="geometry" />
        </mxCell>
        <mxCell id="njHftQt_05gtDWMgDomF-67" style="edgeStyle=orthogonalEdgeStyle;rounded=0;orthogonalLoop=1;jettySize=auto;html=1;endArrow=classic;endFill=1;entryX=0;entryY=1;entryDx=0;entryDy=0;" edge="1" parent="1" target="njHftQt_05gtDWMgDomF-68">
          <mxGeometry relative="1" as="geometry">
            <mxPoint x="1520" y="360" as="targetPoint" />
            <mxPoint x="645" y="360" as="sourcePoint" />
            <Array as="points">
              <mxPoint x="1310" y="360" />
              <mxPoint x="1310" y="360" />
            </Array>
          </mxGeometry>
        </mxCell>
        <mxCell id="njHftQt_05gtDWMgDomF-68" value="" style="rounded=0;whiteSpace=wrap;html=1;direction=south;" vertex="1" parent="1">
          <mxGeometry x="1525" y="360" width="10" height="30" as="geometry" />
        </mxCell>
        <mxCell id="njHftQt_05gtDWMgDomF-69" style="edgeStyle=orthogonalEdgeStyle;rounded=0;orthogonalLoop=1;jettySize=auto;html=1;dashed=1;endArrow=none;endFill=0;" edge="1" parent="1" source="njHftQt_05gtDWMgDomF-8" target="njHftQt_05gtDWMgDomF-68">
          <mxGeometry relative="1" as="geometry">
            <mxPoint x="1530" y="1120" as="targetPoint" />
            <mxPoint x="1530" y="70" as="sourcePoint" />
          </mxGeometry>
        </mxCell>
        <mxCell id="njHftQt_05gtDWMgDomF-70" style="edgeStyle=orthogonalEdgeStyle;rounded=0;orthogonalLoop=1;jettySize=auto;html=1;exitX=1;exitY=1;exitDx=0;exitDy=0;dashed=1;endArrow=classic;endFill=1;" edge="1" parent="1" source="njHftQt_05gtDWMgDomF-68">
          <mxGeometry relative="1" as="geometry">
            <mxPoint x="1512.5" y="390" as="sourcePoint" />
            <mxPoint x="650" y="390" as="targetPoint" />
            <Array as="points">
              <mxPoint x="660" y="390" />
            </Array>
          </mxGeometry>
        </mxCell>
        <mxCell id="njHftQt_05gtDWMgDomF-71" style="edgeStyle=orthogonalEdgeStyle;rounded=0;orthogonalLoop=1;jettySize=auto;html=1;endArrow=classic;endFill=1;entryX=0;entryY=1;entryDx=0;entryDy=0;" edge="1" parent="1" target="njHftQt_05gtDWMgDomF-72">
          <mxGeometry relative="1" as="geometry">
            <mxPoint x="1680" y="420" as="targetPoint" />
            <mxPoint x="650" y="410" as="sourcePoint" />
            <Array as="points">
              <mxPoint x="670" y="410" />
            </Array>
          </mxGeometry>
        </mxCell>
        <mxCell id="njHftQt_05gtDWMgDomF-72" value="" style="rounded=0;whiteSpace=wrap;html=1;direction=south;" vertex="1" parent="1">
          <mxGeometry x="1703" y="410" width="10" height="30" as="geometry" />
        </mxCell>
        <mxCell id="njHftQt_05gtDWMgDomF-73" style="edgeStyle=orthogonalEdgeStyle;rounded=0;orthogonalLoop=1;jettySize=auto;html=1;dashed=1;endArrow=none;endFill=0;" edge="1" parent="1" source="njHftQt_05gtDWMgDomF-13" target="njHftQt_05gtDWMgDomF-72">
          <mxGeometry relative="1" as="geometry">
            <mxPoint x="1708" y="1120" as="targetPoint" />
            <mxPoint x="1708" y="70" as="sourcePoint" />
          </mxGeometry>
        </mxCell>
        <mxCell id="njHftQt_05gtDWMgDomF-74" value="11: getRoom" style="text;html=1;align=center;verticalAlign=middle;resizable=0;points=[];autosize=1;" vertex="1" parent="1">
          <mxGeometry x="1030" y="340" width="80" height="20" as="geometry" />
        </mxCell>
        <mxCell id="njHftQt_05gtDWMgDomF-75" value="12: RoomBean: roomBean" style="text;html=1;align=center;verticalAlign=middle;resizable=0;points=[];autosize=1;" vertex="1" parent="1">
          <mxGeometry x="950" y="370" width="160" height="20" as="geometry" />
        </mxCell>
        <mxCell id="njHftQt_05gtDWMgDomF-76" value="13: &amp;lt;&amp;lt;create&amp;gt;&amp;gt;" style="text;html=1;align=center;verticalAlign=middle;resizable=0;points=[];autosize=1;" vertex="1" parent="1">
          <mxGeometry x="1030" y="390" width="100" height="20" as="geometry" />
        </mxCell>
        <mxCell id="njHftQt_05gtDWMgDomF-77" style="edgeStyle=orthogonalEdgeStyle;rounded=0;orthogonalLoop=1;jettySize=auto;html=1;exitX=1;exitY=1;exitDx=0;exitDy=0;dashed=1;endArrow=classic;endFill=1;" edge="1" parent="1">
          <mxGeometry relative="1" as="geometry">
            <mxPoint x="1702" y="450" as="sourcePoint" />
            <mxPoint x="670" y="440" as="targetPoint" />
            <Array as="points">
              <mxPoint x="1702" y="440" />
            </Array>
          </mxGeometry>
        </mxCell>
        <mxCell id="njHftQt_05gtDWMgDomF-78" value="14: Room: room" style="text;html=1;align=center;verticalAlign=middle;resizable=0;points=[];autosize=1;" vertex="1" parent="1">
          <mxGeometry x="1190" y="420" width="100" height="20" as="geometry" />
        </mxCell>
        <mxCell id="njHftQt_05gtDWMgDomF-79" style="edgeStyle=orthogonalEdgeStyle;rounded=0;orthogonalLoop=1;jettySize=auto;html=1;endArrow=classic;endFill=1;entryX=0;entryY=1;entryDx=0;entryDy=0;" edge="1" parent="1" target="njHftQt_05gtDWMgDomF-80">
          <mxGeometry relative="1" as="geometry">
            <mxPoint x="1870" y="480" as="targetPoint" />
            <mxPoint x="660" y="460" as="sourcePoint" />
            <Array as="points">
              <mxPoint x="670" y="460" />
            </Array>
          </mxGeometry>
        </mxCell>
        <mxCell id="njHftQt_05gtDWMgDomF-80" value="" style="rounded=0;whiteSpace=wrap;html=1;direction=south;" vertex="1" parent="1">
          <mxGeometry x="1885" y="460" width="10" height="30" as="geometry" />
        </mxCell>
        <mxCell id="njHftQt_05gtDWMgDomF-81" style="edgeStyle=orthogonalEdgeStyle;rounded=0;orthogonalLoop=1;jettySize=auto;html=1;dashed=1;endArrow=none;endFill=0;" edge="1" parent="1" source="njHftQt_05gtDWMgDomF-9" target="njHftQt_05gtDWMgDomF-80">
          <mxGeometry relative="1" as="geometry">
            <mxPoint x="1890" y="1120" as="targetPoint" />
            <mxPoint x="1890" y="70" as="sourcePoint" />
          </mxGeometry>
        </mxCell>
        <mxCell id="njHftQt_05gtDWMgDomF-83" style="edgeStyle=orthogonalEdgeStyle;rounded=0;orthogonalLoop=1;jettySize=auto;html=1;dashed=1;endArrow=classic;endFill=1;" edge="1" parent="1">
          <mxGeometry relative="1" as="geometry">
            <mxPoint x="1880" y="490" as="sourcePoint" />
            <mxPoint x="670" y="490" as="targetPoint" />
            <Array as="points">
              <mxPoint x="790" y="490" />
            </Array>
          </mxGeometry>
        </mxCell>
        <mxCell id="njHftQt_05gtDWMgDomF-85" style="edgeStyle=orthogonalEdgeStyle;rounded=0;orthogonalLoop=1;jettySize=auto;html=1;endArrow=classic;endFill=1;entryX=0;entryY=1;entryDx=0;entryDy=0;" edge="1" parent="1" target="njHftQt_05gtDWMgDomF-84">
          <mxGeometry relative="1" as="geometry">
            <mxPoint x="1875" y="540" as="targetPoint" />
            <mxPoint x="650" y="510" as="sourcePoint" />
            <Array as="points">
              <mxPoint x="680" y="510" />
              <mxPoint x="680" y="510" />
            </Array>
          </mxGeometry>
        </mxCell>
        <mxCell id="njHftQt_05gtDWMgDomF-84" value="" style="rounded=0;whiteSpace=wrap;html=1;direction=south;" vertex="1" parent="1">
          <mxGeometry x="2056" y="510" width="10" height="30" as="geometry" />
        </mxCell>
        <mxCell id="njHftQt_05gtDWMgDomF-87" style="edgeStyle=orthogonalEdgeStyle;rounded=0;orthogonalLoop=1;jettySize=auto;html=1;dashed=1;endArrow=none;endFill=0;" edge="1" parent="1" source="njHftQt_05gtDWMgDomF-14" target="njHftQt_05gtDWMgDomF-84">
          <mxGeometry relative="1" as="geometry">
            <mxPoint x="2060.9999999999995" y="1120" as="targetPoint" />
            <mxPoint x="2060.9999999999995" y="70" as="sourcePoint" />
          </mxGeometry>
        </mxCell>
        <mxCell id="njHftQt_05gtDWMgDomF-88" style="edgeStyle=orthogonalEdgeStyle;rounded=0;orthogonalLoop=1;jettySize=auto;html=1;dashed=1;endArrow=classic;endFill=1;exitX=1;exitY=1;exitDx=0;exitDy=0;" edge="1" parent="1" source="njHftQt_05gtDWMgDomF-84">
          <mxGeometry relative="1" as="geometry">
            <mxPoint x="2037" y="540" as="sourcePoint" />
            <mxPoint x="680" y="540" as="targetPoint" />
            <Array as="points">
              <mxPoint x="1720" y="540" />
              <mxPoint x="1720" y="540" />
            </Array>
          </mxGeometry>
        </mxCell>
        <mxCell id="njHftQt_05gtDWMgDomF-89" value="15: getRoomSpec" style="text;html=1;align=center;verticalAlign=middle;resizable=0;points=[];autosize=1;" vertex="1" parent="1">
          <mxGeometry x="1065" y="440" width="110" height="20" as="geometry" />
        </mxCell>
        <mxCell id="njHftQt_05gtDWMgDomF-90" value="16: RoomSpecBean: roomSpecBean" style="text;html=1;align=center;verticalAlign=middle;resizable=0;points=[];autosize=1;" vertex="1" parent="1">
          <mxGeometry x="1105" y="470" width="210" height="20" as="geometry" />
        </mxCell>
        <mxCell id="njHftQt_05gtDWMgDomF-91" value="17: &amp;lt;&amp;lt;create&amp;gt;&amp;gt;" style="text;html=1;align=center;verticalAlign=middle;resizable=0;points=[];autosize=1;" vertex="1" parent="1">
          <mxGeometry x="1220" y="490" width="100" height="20" as="geometry" />
        </mxCell>
        <mxCell id="njHftQt_05gtDWMgDomF-92" value="18: RoomSpec: roomSpec&amp;nbsp;" style="text;html=1;align=center;verticalAlign=middle;resizable=0;points=[];autosize=1;" vertex="1" parent="1">
          <mxGeometry x="1310" y="520" width="160" height="20" as="geometry" />
        </mxCell>
        <mxCell id="njHftQt_05gtDWMgDomF-93" style="edgeStyle=orthogonalEdgeStyle;rounded=0;orthogonalLoop=1;jettySize=auto;html=1;endArrow=classic;endFill=1;" edge="1" parent="1">
          <mxGeometry relative="1" as="geometry">
            <mxPoint x="1140" y="560" as="targetPoint" />
            <mxPoint x="660" y="560" as="sourcePoint" />
            <Array as="points">
              <mxPoint x="690" y="560" />
              <mxPoint x="690" y="560" />
            </Array>
          </mxGeometry>
        </mxCell>
        <mxCell id="njHftQt_05gtDWMgDomF-96" value="19: getAccount" style="edgeLabel;html=1;align=center;verticalAlign=middle;resizable=0;points=[];" vertex="1" connectable="0" parent="njHftQt_05gtDWMgDomF-93">
          <mxGeometry x="-0.0719" y="5" relative="1" as="geometry">
            <mxPoint x="27.14" y="-5.01" as="offset" />
          </mxGeometry>
        </mxCell>
        <mxCell id="njHftQt_05gtDWMgDomF-97" style="edgeStyle=orthogonalEdgeStyle;rounded=0;orthogonalLoop=1;jettySize=auto;html=1;exitX=1;exitY=1;exitDx=0;exitDy=0;dashed=1;endArrow=classic;endFill=1;" edge="1" parent="1" source="njHftQt_05gtDWMgDomF-94">
          <mxGeometry relative="1" as="geometry">
            <mxPoint x="670" y="590" as="targetPoint" />
            <Array as="points">
              <mxPoint x="819" y="590" />
            </Array>
          </mxGeometry>
        </mxCell>
        <mxCell id="njHftQt_05gtDWMgDomF-94" value="" style="rounded=0;whiteSpace=wrap;html=1;direction=south;" vertex="1" parent="1">
          <mxGeometry x="1165" y="560" width="10" height="30" as="geometry" />
        </mxCell>
        <mxCell id="njHftQt_05gtDWMgDomF-95" style="edgeStyle=orthogonalEdgeStyle;rounded=0;orthogonalLoop=1;jettySize=auto;html=1;dashed=1;endArrow=none;endFill=0;" edge="1" parent="1" source="njHftQt_05gtDWMgDomF-57" target="njHftQt_05gtDWMgDomF-94">
          <mxGeometry relative="1" as="geometry">
            <mxPoint x="1170" y="1120" as="targetPoint" />
            <mxPoint x="1170" y="290" as="sourcePoint" />
          </mxGeometry>
        </mxCell>
        <mxCell id="njHftQt_05gtDWMgDomF-98" value="20: AccountBean: roomOwnerBean&amp;nbsp;" style="text;html=1;align=center;verticalAlign=middle;resizable=0;points=[];autosize=1;" vertex="1" parent="1">
          <mxGeometry x="815" y="570" width="210" height="20" as="geometry" />
        </mxCell>
        <mxCell id="njHftQt_05gtDWMgDomF-99" style="edgeStyle=orthogonalEdgeStyle;rounded=0;orthogonalLoop=1;jettySize=auto;html=1;endArrow=classic;endFill=1;entryX=0;entryY=1;entryDx=0;entryDy=0;" edge="1" parent="1" target="njHftQt_05gtDWMgDomF-101">
          <mxGeometry relative="1" as="geometry">
            <mxPoint x="1140" y="610" as="targetPoint" />
            <mxPoint x="660" y="610" as="sourcePoint" />
            <Array as="points">
              <mxPoint x="1170" y="610" />
              <mxPoint x="1170" y="610" />
            </Array>
          </mxGeometry>
        </mxCell>
        <mxCell id="njHftQt_05gtDWMgDomF-100" value="20: &amp;lt;&amp;lt;create&amp;gt;&amp;gt;" style="edgeLabel;html=1;align=center;verticalAlign=middle;resizable=0;points=[];" vertex="1" connectable="0" parent="njHftQt_05gtDWMgDomF-99">
          <mxGeometry x="-0.0719" y="5" relative="1" as="geometry">
            <mxPoint x="27.14" y="-5.01" as="offset" />
          </mxGeometry>
        </mxCell>
        <mxCell id="njHftQt_05gtDWMgDomF-101" value="" style="rounded=0;whiteSpace=wrap;html=1;direction=south;" vertex="1" parent="1">
          <mxGeometry x="1345" y="610" width="10" height="30" as="geometry" />
        </mxCell>
        <mxCell id="njHftQt_05gtDWMgDomF-102" style="edgeStyle=orthogonalEdgeStyle;rounded=0;orthogonalLoop=1;jettySize=auto;html=1;dashed=1;endArrow=none;endFill=0;" edge="1" parent="1" source="njHftQt_05gtDWMgDomF-11" target="njHftQt_05gtDWMgDomF-101">
          <mxGeometry relative="1" as="geometry">
            <mxPoint x="1350" y="1120" as="targetPoint" />
            <mxPoint x="1350" y="70" as="sourcePoint" />
          </mxGeometry>
        </mxCell>
        <mxCell id="njHftQt_05gtDWMgDomF-103" style="edgeStyle=orthogonalEdgeStyle;rounded=0;orthogonalLoop=1;jettySize=auto;html=1;exitX=1;exitY=1;exitDx=0;exitDy=0;dashed=1;endArrow=classic;endFill=1;" edge="1" parent="1">
          <mxGeometry relative="1" as="geometry">
            <mxPoint x="660" y="640" as="targetPoint" />
            <mxPoint x="1330" y="640" as="sourcePoint" />
            <Array as="points">
              <mxPoint x="984" y="640" />
            </Array>
          </mxGeometry>
        </mxCell>
        <mxCell id="njHftQt_05gtDWMgDomF-104" value="21: Account: roomOwner" style="text;html=1;align=center;verticalAlign=middle;resizable=0;points=[];autosize=1;" vertex="1" parent="1">
          <mxGeometry x="835" y="620" width="150" height="20" as="geometry" />
        </mxCell>
      </root>
    </mxGraphModel>
  </diagram>
</mxfile>
